<svg xmlns="http://www.w3.org/2000/svg" width="182.716" height="80.585" viewBox="0 0 182.716 80.585">
  <g id="로고" transform="translate(-86.151 -503.183)">
    <g id="그룹_418" data-name="그룹 418" transform="translate(108.384 527.344)">
      <path id="패스_1119" data-name="패스 1119" d="M113.35,560.492l.316.631c11.326-.978,17.92-7.193,17.92-20.823v-6.246a63.171,63.171,0,0,1-7.667.536h-1.829a65.23,65.23,0,0,1-7-.474v2.209h10.505V540.3a35.283,35.283,0,0,1-.284,4.638H114.833v1.735h10.222C123.54,555.065,118.871,558.977,113.35,560.492Z" transform="translate(-113.35 -532.981)" fill="#1f3344"/>
      <path id="패스_1120" data-name="패스 1120" d="M140.873,532.741V562.3h5.667V532.741A18,18,0,0,1,140.873,532.741Z" transform="translate(-118.375 -532.741)" fill="#1f3344"/>
      <path id="패스_1121" data-name="패스 1121" d="M176.354,532.741v17.321H153.576V551.8h7.887v10.885H164.9c1.893-1.293,2.523-3.629,2.523-6.847V551.8h8.929v3.313h-6.689v1.735h6.689v5.868h5.283V532.741A11.492,11.492,0,0,1,176.354,532.741Z" transform="translate(-120.695 -532.741)" fill="#1f3344"/>
      <path id="패스_1122" data-name="패스 1122" d="M164.44,548.454h.253c6.342,0,9.591-2.02,9.591-7.383v-.253c0-5.363-3.565-7.382-9.591-7.382h-.253c-6.026,0-9.591,2.019-9.591,7.382v.253C154.849,546.434,158.383,548.454,164.44,548.454Zm-3.66-7.635c0-3.849,1.1-5.836,3.66-5.836h.253c2.555,0,3.66,1.987,3.66,5.836v.253c0,3.88-1.105,5.836-3.66,5.836h-.253c-2.555,0-3.66-1.987-3.66-5.836Z" transform="translate(-120.927 -532.868)" fill="#1f3344"/>
      <path id="패스_1123" data-name="패스 1123" d="M220.9,549.1H203.016V536.416h17.7v-2.208a60.938,60.938,0,0,1-7.667.472h-7.319c-2.839,0-6.53-.221-8.707-.472v16.626H220.9Z" transform="translate(-128.627 -533.009)" fill="#1f3344"/>
      <rect id="사각형_1634" data-name="사각형 1634" width="29.179" height="1.735" transform="translate(65.825 25.05)" fill="#1f3344"/>
      <path id="패스_1124" data-name="패스 1124" d="M259.573,532.741V550.85h5.282V532.741A15.611,15.611,0,0,1,259.573,532.741Z" transform="translate(-140.048 -532.741)" fill="#1f3344"/>
      <path id="패스_1125" data-name="패스 1125" d="M251.272,548.443H239.631V542.89h10.821v-9.338a58.5,58.5,0,0,1-7.036.473h-2.524a65.416,65.416,0,0,1-7-.473v2.208h10.569v5.395H233.636v9.023h17.636Z" transform="translate(-135.312 -532.889)" fill="#1f3344"/>
      <path id="패스_1126" data-name="패스 1126" d="M239.872,566.938h19.574c1.957-1.578,1.812-3.029,1.812-6.878V557.1H239.872Zm5.283-8.108h10.821V565.2H245.155Z" transform="translate(-136.451 -537.188)" fill="#1f3344"/>
      <path id="패스_1127" data-name="패스 1127" d="M282.326,558.755a16.654,16.654,0,0,1-5.994,0v8.171h24.451v-1.734H282.326Z" transform="translate(-143.108 -537.491)" fill="#1f3344"/>
      <path id="패스_1128" data-name="패스 1128" d="M290.515,550.3v-3.281h9.5v-1.735H281.934v-3.754h17.383V533.9a65.1,65.1,0,0,1-7.667.472h-7.54c-2.177,0-6.278-.22-8.14-.472v2.208h17.352V539.8H275.939v7.225h8.581V550.3H272.279v1.735H302.85V550.3Z" transform="translate(-142.368 -532.953)" fill="#1f3344"/>
    </g>
    <path id="패스_1129" data-name="패스 1129" d="M137,512.233l-50.846-9.05v80.585L137,574.719V563.71h-6.9v5.232l-37.05,6.593V511.418l37.05,6.593v2.37h0l0,0c0,.176,1.543.319,3.448.319s3.448-.143,3.448-.319l0,0h0Z" transform="translate(0 0)" fill="#744bf0"/>
  </g>
</svg>
